<svg width="28" height="28" viewBox="0 0 28 28" fill="none" xmlns="http://www.w3.org/2000/svg">
<path d="M19 11.5L9 6.5" stroke="black" stroke-width="1.5" stroke-linecap="round" stroke-linejoin="round"/>
<path d="M24 18.0008V9.99918C23.9996 9.64838 23.8967 9.30385 23.7017 9.00014C23.5067 8.69643 23.2264 8.44422 22.8889 8.26882L15.1111 4.268C14.7733 4.09243 14.3901 4 14 4C13.6099 4 13.2267 4.09243 12.8889 4.268L5.11111 8.26882C4.77363 8.44422 4.49331 8.69643 4.29829 9.00014C4.10327 9.30385 4.0004 9.64838 4 9.99918V18.0008C4.0004 18.3516 4.10327 18.6962 4.29829 18.9999C4.49331 19.3036 4.77363 19.5558 5.11111 19.7312L12.8889 23.732C13.2267 23.9076 13.6099 24 14 24C14.3901 24 14.7733 23.9076 15.1111 23.732L22.8889 19.7312C23.2264 19.5558 23.5067 19.3036 23.7017 18.9999C23.8967 18.6962 23.9996 18.3516 24 18.0008Z" stroke="black" stroke-width="1.5" stroke-linecap="round" stroke-linejoin="round"/>
<path d="M4.47607 9.23804L13.9999 13.9999L23.5237 9.23804" stroke="black" stroke-width="1.5" stroke-linecap="round" stroke-linejoin="round"/>
<path d="M14 24V14" stroke="black" stroke-width="1.5" stroke-linecap="round" stroke-linejoin="round"/>
</svg>
