<svg width="28" height="28" viewBox="0 0 28 28" fill="none" xmlns="http://www.w3.org/2000/svg">
<path d="M6.30002 11.6667V11.6667C4.48985 12.4895 3.58477 12.9009 3.37414 13.5093C3.26409 13.8272 3.26409 14.1728 3.37414 14.4907C3.58477 15.0991 4.48985 15.5105 6.30002 16.3333V16.3333M6.30002 11.6667V11.6667C4.48985 10.8439 3.58477 10.4325 3.37414 9.82405C3.26409 9.50616 3.26409 9.1605 3.37414 8.84261C3.58477 8.23421 4.48985 7.8228 6.30002 7L12.8828 4.00785C13.3707 3.78607 13.6146 3.67517 13.8722 3.65315C13.9573 3.64587 14.0428 3.64587 14.1279 3.65315C14.3854 3.67517 14.6294 3.78607 15.1173 4.00785L21.7 7C23.5102 7.8228 24.4153 8.23421 24.6259 8.84261C24.736 9.1605 24.736 9.50616 24.6259 9.82405C24.4153 10.4325 23.5102 10.8439 21.7 11.6667V11.6667M6.30002 11.6667L12.8828 14.6588C13.3707 14.8806 13.6146 14.9915 13.8722 15.0135C13.9573 15.0208 14.0428 15.0208 14.1279 15.0135C14.3854 14.9915 14.6294 14.8806 15.1173 14.6588L21.7 11.6667M6.30002 16.3333V16.3333C4.48985 17.1561 3.58477 17.5675 3.37414 18.1759C3.26409 18.4938 3.26409 18.8395 3.37414 19.1574C3.58477 19.7658 4.48985 20.1772 6.30002 21L12.8828 23.9922C13.3707 24.2139 13.6146 24.3248 13.8722 24.3469C13.9573 24.3541 14.0428 24.3541 14.1279 24.3469C14.3854 24.3248 14.6294 24.2139 15.1173 23.9922L21.7 21C23.5102 20.1772 24.4153 19.7658 24.6259 19.1574C24.736 18.8395 24.736 18.4938 24.6259 18.1759C24.4153 17.5675 23.5102 17.1561 21.7 16.3333V16.3333M6.30002 16.3333L12.8828 19.3255C13.3707 19.5473 13.6146 19.6582 13.8722 19.6802C13.9573 19.6875 14.0428 19.6875 14.1279 19.6802C14.3854 19.6582 14.6294 19.5473 15.1173 19.3255L21.7 16.3333M21.7 16.3333V16.3333C23.5102 15.5105 24.4153 15.0991 24.6259 14.4907C24.736 14.1728 24.736 13.8272 24.6259 13.5093C24.4153 12.9009 23.5102 12.4895 21.7 11.6667V11.6667" stroke="black" stroke-width="1.5" stroke-linejoin="round"/>
</svg>
