<svg width="28" height="28" viewBox="0 0 28 28" fill="none" xmlns="http://www.w3.org/2000/svg">
<path d="M11.6716 20.6727V20.6727C11.2452 21.8205 12.0942 23.0416 13.3187 23.0416H21.0463C22.2211 23.0416 22.8084 23.0416 23.2265 22.8877C24.2122 22.5248 24.866 21.5846 24.8629 20.5343C24.8616 20.0888 24.6571 19.5381 24.248 18.4369V18.4369C23.9079 17.5212 23.7379 17.0633 23.4937 16.6891C22.9255 15.8183 22.0405 15.2029 21.0263 14.9735C20.5905 14.8749 20.1021 14.8749 19.1253 14.8749H17.0421C16.691 14.8749 16.5155 14.8749 16.3415 14.8901C16.167 14.9054 15.9937 14.9321 15.8227 14.9701C15.6522 15.008 15.4848 15.0609 15.15 15.1666V15.1666M9.71845 9.62492C8.42978 9.62492 7.38511 8.58025 7.38511 7.29159C7.38511 6.00292 8.42978 4.95825 9.71845 4.95825C11.0071 4.95825 12.0518 6.00292 12.0518 7.29159C12.0518 8.58025 11.0071 9.62492 9.71845 9.62492ZM18.4684 11.9583C17.1798 11.9583 16.1351 10.9136 16.1351 9.62492C16.1351 8.33625 17.1798 7.29159 18.4684 7.29159C19.7571 7.29159 20.8018 8.33625 20.8018 9.62492C20.8018 10.9136 19.7571 11.9583 18.4684 11.9583ZM6.95374 20.7083H12.2963C13.4711 20.7083 14.0584 20.7083 14.4765 20.5543C15.4622 20.1915 16.116 19.2513 16.1129 18.2009C16.1116 17.7554 15.9071 17.2048 15.498 16.1036V16.1036C15.1579 15.1878 14.9879 14.73 14.7437 14.3558C14.1755 13.485 13.2905 12.8696 12.2763 12.6402C11.8405 12.5416 11.3521 12.5416 10.3753 12.5416H8.87478C7.89792 12.5416 7.4095 12.5416 6.97369 12.6402C5.95952 12.8696 5.07455 13.485 4.50635 14.3558C4.26219 14.73 4.09212 15.1878 3.752 16.1036V16.1036C3.34297 17.2048 3.13845 17.7554 3.13715 18.2009C3.13408 19.2513 3.78785 20.1915 4.77352 20.5543C5.19162 20.7083 5.77899 20.7083 6.95374 20.7083Z" stroke="black" stroke-width="1.5" stroke-linejoin="round"/>
</svg>
